<svg width="866" height="866" viewBox="0 0 866 866" fill="none" xmlns="http://www.w3.org/2000/svg">
<path fill-rule="evenodd" clip-rule="evenodd" d="M173.519 293.327C226.532 209.192 321.186 164.295 420.002 153.144C513.937 142.543 619.466 161.057 676.313 236.586C727.155 304.137 670.795 393.077 664.018 477.352C657.331 560.511 699.489 657.491 637.937 713.807C571.668 774.439 469.722 756.916 382.676 734.764C288.026 710.678 187.483 676.794 145.664 588.533C101.139 494.56 118.083 381.307 173.519 293.327Z" fill="#3071E7"/>
<path fill-rule="evenodd" clip-rule="evenodd" d="M152.519 273.327C205.532 189.192 300.186 144.295 399.002 133.144C492.937 122.543 598.466 141.057 655.313 216.586C706.155 284.137 649.795 373.077 643.018 457.352C636.331 540.511 678.489 637.491 616.937 693.807C550.668 754.439 448.722 736.916 361.676 714.764C267.026 690.678 166.483 656.794 124.664 568.533C80.1388 474.56 97.083 361.307 152.519 273.327Z" fill="#EAF0FC"/>
</svg>
