<svg width="69" height="69" viewBox="0 0 69 69" fill="none" xmlns="http://www.w3.org/2000/svg">
<path d="M34.5 4.3125C17.8295 4.3125 4.3125 17.8295 4.3125 34.5C4.3125 51.1705 17.8295 64.6875 34.5 64.6875C51.1705 64.6875 64.6875 51.1705 64.6875 34.5C64.6875 17.8295 51.1705 4.3125 34.5 4.3125ZM49.0075 27.0677C49.0277 27.3844 49.0277 27.7146 49.0277 28.038C49.0277 37.9298 41.4943 49.3242 27.728 49.3242C23.4829 49.3242 19.5478 48.0911 16.2325 45.9686C16.839 46.0359 17.4185 46.0629 18.0384 46.0629C21.5423 46.0629 24.7632 44.877 27.3305 42.8689C24.0422 42.8016 21.2795 40.6453 20.3361 37.6805C21.4884 37.8489 22.5261 37.8489 23.712 37.5457C22.0189 37.2017 20.497 36.2822 19.405 34.9433C18.313 33.6044 17.7182 31.9287 17.7217 30.201V30.1066C18.7122 30.6659 19.8779 31.0096 21.0976 31.0567C20.0723 30.3734 19.2314 29.4477 18.6496 28.3616C18.0678 27.2755 17.7629 26.0627 17.7621 24.8306C17.7621 23.4357 18.126 22.1622 18.7796 21.0571C20.6589 23.3706 23.004 25.2628 25.6625 26.6106C28.321 27.9584 31.2333 28.7317 34.2103 28.8803C33.1523 23.7929 36.9527 19.6758 41.5213 19.6758C43.6775 19.6758 45.6182 20.5787 46.986 22.0342C48.6773 21.7175 50.2945 21.0841 51.7365 20.2351C51.1772 21.9668 50.0048 23.429 48.4482 24.3521C49.9576 24.1904 51.4131 23.7727 52.7607 23.1864C51.7433 24.6823 50.4697 26.0098 49.0075 27.0677Z" fill="#3071E7"/>
</svg>
